<?xml version="1.0" standalone="no"?>
<!DOCTYPE svg PUBLIC "-//W3C//DTD SVG 20010904//EN"
 "http://www.w3.org/TR/2001/REC-SVG-20010904/DTD/svg10.dtd">
<svg version="1.0" xmlns="http://www.w3.org/2000/svg"
 width="512.000000pt" height="512.000000pt" viewBox="0 0 512.000000 512.000000"
 preserveAspectRatio="xMidYMid meet">
<metadata>
Created by potrace 1.14, written by Peter Selinger 2001-2017
</metadata>
<g transform="translate(0.000000,512.000000) scale(0.100000,-0.100000)"
fill="#000000" stroke="none">
<path d="M2379 5116 c-2 -2 -40 -6 -83 -10 -44 -4 -82 -8 -85 -10 -3 -2 -31
-7 -61 -11 -30 -3 -75 -11 -100 -17 -25 -5 -56 -12 -70 -15 -34 -7 -38 -8 -90
-22 -61 -16 -233 -72 -245 -80 -5 -3 -15 -6 -21 -7 -24 -4 -245 -111 -334
-162 -349 -201 -643 -475 -861 -804 -53 -80 -82 -130 -151 -258 -32 -59 -103
-224 -129 -297 -31 -89 -87 -286 -95 -340 -5 -26 -9 -50 -9 -53 -28 -111 -40
-249 -39 -480 0 -183 3 -241 19 -345 3 -16 7 -43 9 -60 8 -55 45 -219 66 -290
11 -38 22 -77 24 -85 36 -139 173 -425 291 -605 279 -429 654 -744 1145 -963
122 -54 380 -132 515 -155 11 -2 36 -7 55 -10 224 -41 613 -44 822 -7 29 5 69
12 88 15 19 3 42 8 50 10 8 2 29 7 45 9 81 15 332 97 435 143 108 49 212 101
278 140 364 215 671 514 891 867 45 72 181 336 181 352 0 5 6 21 14 35 14 28
61 162 57 167 -1 1 5 15 12 30 16 30 61 216 82 332 21 119 29 238 30 425 0
217 -11 339 -44 500 -6 28 -13 61 -15 75 -11 56 -50 190 -78 270 -189 533
-523 966 -990 1284 -54 36 -101 66 -105 66 -3 0 -14 6 -22 14 -20 18 -259 138
-331 166 -48 19 -255 92 -255 90 0 -1 -7 1 -15 4 -27 9 -186 46 -225 52 -21 3
-47 8 -59 10 -11 2 -41 7 -66 10 -25 3 -56 8 -70 10 -28 6 -456 15 -461 10z"/>
</g>
</svg>
